<svg width="120" height="24" viewBox="0 0 120 24" fill="none" xmlns="http://www.w3.org/2000/svg">
  <g fill="#FFD700">
    <path d="M12 2l2.4 7.2h7.6l-6 4.8 2.4 7.2-6-4.8-6 4.8 2.4-7.2-6-4.8h7.6z"/>
    <path d="M36 2l2.4 7.2h7.6l-6 4.8 2.4 7.2-6-4.8-6 4.8 2.4-7.2-6-4.8h7.6z"/>
    <path d="M60 2l2.4 7.2h7.6l-6 4.8 2.4 7.2-6-4.8-6 4.8 2.4-7.2-6-4.8h7.6z"/>
    <path d="M84 2l2.4 7.2h7.6l-6 4.8 2.4 7.2-6-4.8-6 4.8 2.4-7.2-6-4.8h7.6z"/>
    <path d="M108 2l2.4 7.2h7.6l-6 4.8 2.4 7.2-6-4.8-6 4.8 2.4-7.2-6-4.8h7.6z"/>
  </g>
</svg>
